StickNoBills-latin-1.ufo
<glyph name="numbersign" format="1">
  <advance width="753"/>
  <unicode hex="0023"/>
  <outline>
    <contour>
      <point x="27.6387" y="176" type="line"/>
      <point x="52.6387" y="297" type="line"/>
      <point x="189.639" y="297" type="line"/>
      <point x="207.639" y="404" type="line"/>
      <point x="61.6387" y="404" type="line"/>
      <point x="83.6387" y="525" type="line"/>
      <point x="229.639" y="525" type="line"/>
      <point x="256.639" y="682" type="line"/>
      <point x="377.639" y="682" type="line"/>
      <point x="349.639" y="524" type="line"/>
      <point x="455.639" y="524" type="line"/>
      <point x="482.639" y="682" type="line"/>
      <point x="603.639" y="682" type="line"/>
      <point x="575.639" y="524" type="line"/>
      <point x="713.639" y="524" type="line"/>
      <point x="694.639" y="403" type="line"/>
      <point x="554.639" y="404" type="line"/>
      <point x="535.639" y="296" type="line"/>
      <point x="678.639" y="296" type="line"/>
      <point x="660.639" y="175" type="line"/>
      <point x="514.639" y="176" type="line"/>
      <point x="487.639" y="22" type="line"/>
      <point x="367.639" y="22" type="line"/>
      <point x="393.639" y="176" type="line"/>
      <point x="288.639" y="176" type="line"/>
      <point x="261.639" y="22" type="line"/>
      <point x="140.639" y="22" type="line"/>
      <point x="167.639" y="176" type="line"/>
    </contour>
    <contour>
      <point x="309.639" y="297" type="line"/>
      <point x="415.639" y="296" type="line"/>
      <point x="433.639" y="404" type="line"/>
      <point x="328.639" y="404" type="line"/>
    </contour>
  </outline>
</glyph>
<glyph name="ampersand" format="1">
  <advance width="658"/>
  <unicode hex="0026"/>
  <outline>
    <contour>
      <point x="286.916" y="153.731" type="line"/>
      <point x="272.141" y="142.43"/>
      <point x="256.631" y="137.615"/>
      <point x="241.958" y="137.615" type="curve" smooth="yes"/>
      <point x="203.435" y="137.615"/>
      <point x="170.558" y="171.344"/>
      <point x="170.558" y="208.705" type="curve" smooth="yes"/>
      <point x="170.558" y="226.731"/>
      <point x="178.212" y="245.604"/>
      <point x="196.579" y="261.941" type="curve"/>
      <point x="103.74" y="370.914" type="line"/>
      <point x="58.5303" y="332.301"/>
      <point x="30" y="275.844"/>
      <point x="30" y="213" type="curve" smooth="yes"/>
      <point x="30" y="95.4482"/>
      <point x="125.896" y="0"/>
      <point x="244" y="0" type="curve" smooth="yes"/>
      <point x="294.714" y="0"/>
      <point x="341.264" y="17.7412"/>
      <point x="377.614" y="47.2705" type="curve"/>
    </contour>
    <contour>
      <point x="343" y="526" type="line" smooth="yes"/>
      <point x="343" y="539"/>
      <point x="338" y="566"/>
      <point x="314" y="575" type="curve"/>
      <point x="314" y="706" type="line"/>
      <point x="391.615" y="695.919"/>
      <point x="453.283" y="636.194"/>
      <point x="468.426" y="559" type="curve"/>
    </contour>
    <contour>
      <point x="259" y="574.5" type="line" smooth="yes"/>
      <point x="245" y="571.505"/>
      <point x="231" y="555.25"/>
      <point x="231" y="533" type="curve" smooth="yes"/>
      <point x="231" y="511.262"/>
      <point x="241.68" y="494.876"/>
      <point x="255" y="477.5" type="curve"/>
      <point x="414" y="287" type="line"/>
      <point x="424.286" y="299.884"/>
      <point x="434.857" y="320.657"/>
      <point x="438" y="345" type="curve"/>
      <point x="581" y="345" type="line"/>
      <point x="571.811" y="271.418"/>
      <point x="548.838" y="222.709"/>
      <point x="513" y="174" type="curve"/>
      <point x="628" y="37" type="line"/>
      <point x="487" y="0" type="line"/>
      <point x="156" y="393" type="line"/>
      <point x="114.799" y="446.427"/>
      <point x="102" y="481.59"/>
      <point x="102" y="532" type="curve" smooth="yes"/>
      <point x="102" y="620.729"/>
      <point x="168.033" y="693.764"/>
      <point x="259" y="706.069" type="curve"/>
    </contour>
  </outline>
</glyph>
<glyph name="asterisk" format="1">
  <advance width="324"/>
  <unicode hex="002A"/>
  <outline>
    <contour>
      <point x="15" y="691" type="line"/>
      <point x="57" y="748" type="line"/>
      <point x="125" y="704" type="line"/>
      <point x="125" y="785" type="line"/>
      <point x="196" y="785" type="line"/>
      <point x="196" y="702" type="line"/>
      <point x="267" y="748" type="line"/>
      <point x="309" y="691" type="line"/>
      <point x="221" y="632" type="line"/>
      <point x="308" y="572" type="line"/>
      <point x="267" y="515" type="line"/>
      <point x="196" y="565" type="line"/>
      <point x="196" y="478" type="line"/>
      <point x="125" y="478" type="line"/>
      <point x="125" y="564" type="line"/>
      <point x="57" y="517" type="line"/>
      <point x="16" y="574" type="line"/>
      <point x="103" y="633" type="line"/>
    </contour>
  </outline>
</glyph>
<glyph name="one" format="1">
  <advance width="277"/>
  <unicode hex="0031"/>
  <outline>
    <contour>
      <point x="30" y="514" type="line"/>
      <point x="30" y="640" type="line"/>
      <point x="106" y="700" type="line"/>
      <point x="247" y="700" type="line"/>
      <point x="247" y="0" type="line"/>
      <point x="106" y="0" type="line"/>
      <point x="106" y="514" type="line"/>
    </contour>
  </outline>
</glyph>
<glyph name="two" format="1">
  <advance width="495"/>
  <unicode hex="0032"/>
  <outline>
    <contour>
      <point x="30" y="521" type="line"/>
      <point x="30" y="612"/>
      <point x="115" y="700"/>
      <point x="213" y="700" type="curve"/>
      <point x="213" y="570" type="line"/>
      <point x="196" y="570"/>
      <point x="151" y="555"/>
      <point x="151" y="498" type="curve"/>
    </contour>
    <contour>
      <point x="51" y="0" type="line"/>
      <point x="51" y="138" type="line"/>
      <point x="455" y="138" type="line"/>
      <point x="455" y="0" type="line"/>
    </contour>
    <contour>
      <point x="51" y="190" type="line"/>
      <point x="51" y="277.827"/>
      <point x="154" y="332"/>
      <point x="215" y="379" type="curve" smooth="yes"/>
      <point x="267.145" y="419.177"/>
      <point x="335" y="456.5"/>
      <point x="335" y="503" type="curve" smooth="yes"/>
      <point x="335" y="555"/>
      <point x="294" y="570"/>
      <point x="268" y="570" type="curve"/>
      <point x="268" y="700" type="line"/>
      <point x="406.495" y="700"/>
      <point x="465" y="604.615"/>
      <point x="465" y="504" type="curve" smooth="yes"/>
      <point x="465" y="423.125"/>
      <point x="432.036" y="377.158"/>
      <point x="343" y="313" type="curve" smooth="yes"/>
      <point x="275" y="264"/>
      <point x="209.401" y="234.983"/>
      <point x="209" y="190" type="curve"/>
    </contour>
  </outline>
</glyph>
<glyph name="three" format="1">
  <advance width="502"/>
  <unicode hex="0033"/>
  <outline>
    <contour>
      <point x="268" y="0" type="curve"/>
      <point x="268" y="130" type="line"/>
      <point x="301.028" y="133"/>
      <point x="342" y="149.691"/>
      <point x="342" y="200" type="curve" smooth="yes"/>
      <point x="342" y="248.216"/>
      <point x="321" y="285"/>
      <point x="213" y="285" type="curve"/>
      <point x="213" y="415" type="line"/>
      <point x="320.979" y="415"/>
      <point x="342" y="452.784"/>
      <point x="342" y="500" type="curve" smooth="yes"/>
      <point x="342" y="550.309"/>
      <point x="301.028" y="567"/>
      <point x="268" y="570" type="curve"/>
      <point x="268" y="700" type="line"/>
      <point x="349.454" y="700"/>
      <point x="472" y="649.18"/>
      <point x="472" y="501" type="curve" smooth="yes"/>
      <point x="472" y="416"/>
      <point x="433" y="369"/>
      <point x="405" y="350" type="curve"/>
      <point x="433" y="331"/>
      <point x="472" y="284"/>
      <point x="472" y="199" type="curve" smooth="yes"/>
      <point x="472" y="50.8203"/>
      <point x="349.454" y="0"/>
    </contour>
    <contour>
      <point x="30" y="179" type="curve"/>
      <point x="151" y="202" type="line"/>
      <point x="151" y="145"/>
      <point x="196" y="130"/>
      <point x="213" y="130" type="curve"/>
      <point x="213" y="0" type="line"/>
      <point x="115" y="0"/>
      <point x="30" y="88"/>
    </contour>
    <contour>
      <point x="30" y="521" type="line"/>
      <point x="30" y="612"/>
      <point x="115" y="700"/>
      <point x="213" y="700" type="curve"/>
      <point x="213" y="570" type="line"/>
      <point x="196" y="568"/>
      <point x="151" y="555"/>
      <point x="151" y="498" type="curve"/>
    </contour>
  </outline>
</glyph>
<glyph name="seven" format="1">
  <advance width="449"/>
  <unicode hex="0037"/>
  <outline>
    <contour>
      <point x="429" y="570" type="line"/>
      <point x="429" y="700" type="line"/>
      <point x="30" y="700" type="line"/>
      <point x="30" y="570" type="line"/>
    </contour>
    <contour>
      <point x="143" y="0" type="line"/>
      <point x="143" y="198"/>
      <point x="208" y="388"/>
      <point x="276" y="515" type="curve"/>
      <point x="419" y="515" type="line"/>
      <point x="337" y="356"/>
      <point x="283" y="174"/>
      <point x="283" y="0" type="curve"/>
    </contour>
  </outline>
</glyph>
<glyph name="eight" format="1">
  <advance width="492"/>
  <unicode hex="0038"/>
  <outline>
    <contour>
      <point x="276" y="285" type="line"/>
      <point x="314.072" y="277.646"/>
      <point x="333.002" y="241.583"/>
      <point x="333.002" y="205.671" type="curve" smooth="yes"/>
      <point x="333.002" y="169.307"/>
      <point x="313.594" y="133.097"/>
      <point x="275" y="127" type="curve"/>
      <point x="275" y="-2" type="line"/>
      <point x="358" y="-2"/>
      <point x="462" y="80"/>
      <point x="462" y="200" type="curve" smooth="yes"/>
      <point x="462" y="284"/>
      <point x="425" y="331"/>
      <point x="398" y="349" type="curve"/>
      <point x="425" y="367"/>
      <point x="462" y="414"/>
      <point x="462" y="498" type="curve" smooth="yes"/>
      <point x="462" y="618"/>
      <point x="358" y="700"/>
      <point x="275" y="700" type="curve"/>
      <point x="275" y="571" type="line"/>
      <point x="313.594" y="564.903"/>
      <point x="333.002" y="528.693"/>
      <point x="333.002" y="492.329" type="curve" smooth="yes"/>
      <point x="333.002" y="456.417"/>
      <point x="314.072" y="420.354"/>
      <point x="276" y="413" type="curve"/>
    </contour>
    <contour>
      <point x="216" y="285" type="line"/>
      <point x="177.928" y="277.646"/>
      <point x="158.998" y="241.583"/>
      <point x="158.998" y="205.671" type="curve" smooth="yes"/>
      <point x="158.998" y="169.307"/>
      <point x="178.406" y="133.097"/>
      <point x="217" y="127" type="curve"/>
      <point x="217" y="-2" type="line"/>
      <point x="134" y="-2"/>
      <point x="30" y="80"/>
      <point x="30" y="200" type="curve" smooth="yes"/>
      <point x="30" y="284"/>
      <point x="67" y="331"/>
      <point x="94" y="349" type="curve"/>
      <point x="67" y="367"/>
      <point x="30" y="414"/>
      <point x="30" y="498" type="curve" smooth="yes"/>
      <point x="30" y="618"/>
      <point x="134" y="700"/>
      <point x="217" y="700" type="curve"/>
      <point x="217" y="571" type="line"/>
      <point x="178.406" y="564.903"/>
      <point x="158.998" y="528.693"/>
      <point x="158.998" y="492.329" type="curve" smooth="yes"/>
      <point x="158.998" y="456.417"/>
      <point x="177.928" y="420.354"/>
      <point x="216" y="413" type="curve"/>
    </contour>
  </outline>
</glyph>
<glyph name="nine" format="1">
  <advance width="505"/>
  <unicode hex="0039"/>
  <outline>
    <contour>
      <point x="53.7422" y="105.465" type="line"/>
      <point x="83.668" y="45.3018"/>
      <point x="137.914" y="-1"/>
      <point x="219" y="-1" type="curve"/>
      <point x="219" y="129" type="line"/>
      <point x="197.665" y="130"/>
      <point x="171.423" y="147.665"/>
      <point x="160.037" y="177.183" type="curve"/>
    </contour>
    <contour>
      <point x="219" y="570" type="line"/>
      <point x="180.839" y="560.107"/>
      <point x="161.849" y="523.707"/>
      <point x="161.849" y="487.243" type="curve" smooth="yes"/>
      <point x="161.849" y="450.662"/>
      <point x="180.96" y="414.017"/>
      <point x="219" y="404" type="curve"/>
      <point x="219" y="274" type="line"/>
      <point x="95" y="274"/>
      <point x="30" y="370"/>
      <point x="30" y="488" type="curve" smooth="yes"/>
      <point x="30" y="613"/>
      <point x="118" y="700"/>
      <point x="219" y="700" type="curve"/>
    </contour>
    <contour>
      <point x="273" y="274" type="curve"/>
      <point x="273" y="320"/>
      <point x="273" y="404"/>
      <point x="273" y="404" type="curve"/>
      <point x="311.04" y="414.017"/>
      <point x="330.151" y="450.662"/>
      <point x="330.151" y="487.243" type="curve" smooth="yes"/>
      <point x="330.151" y="523.708"/>
      <point x="311.161" y="560.107"/>
      <point x="273" y="570" type="curve"/>
      <point x="273" y="700" type="line"/>
      <point x="448" y="700"/>
      <point x="475" y="513"/>
      <point x="475" y="341" type="curve" smooth="yes"/>
      <point x="475" y="224"/>
      <point x="467" y="-1"/>
      <point x="273" y="-1" type="curve"/>
      <point x="273" y="129" type="line"/>
      <point x="346" y="134"/>
      <point x="340" y="237"/>
      <point x="340" y="287" type="curve"/>
      <point x="323" y="279"/>
      <point x="293" y="274"/>
    </contour>
  </outline>
</glyph>
<glyph name="colon" format="1">
  <advance width="250"/>
  <unicode hex="003A"/>
  <outline>
    <contour>
      <point x="50" y="140" type="curve" smooth="yes"/>
      <point x="50" y="182"/>
      <point x="83" y="216"/>
      <point x="125" y="216" type="curve" smooth="yes"/>
      <point x="167" y="216"/>
      <point x="200" y="182"/>
      <point x="200" y="140" type="curve" smooth="yes"/>
      <point x="200" y="98"/>
      <point x="167" y="65"/>
      <point x="125" y="65" type="curve" smooth="yes"/>
      <point x="83" y="65"/>
      <point x="50" y="98"/>
    </contour>
    <contour>
      <point x="50" y="430" type="curve" smooth="yes"/>
      <point x="50" y="472"/>
      <point x="83" y="506"/>
      <point x="125" y="506" type="curve" smooth="yes"/>
      <point x="167" y="506"/>
      <point x="200" y="472"/>
      <point x="200" y="430" type="curve" smooth="yes"/>
      <point x="200" y="388"/>
      <point x="167" y="355"/>
      <point x="125" y="355" type="curve" smooth="yes"/>
      <point x="83" y="355"/>
      <point x="50" y="388"/>
    </contour>
  </outline>
</glyph>
<glyph name="D" format="1">
  <advance width="472"/>
  <unicode hex="0044"/>
  <outline>
    <contour>
      <point x="42" y="0" type="line"/>
      <point x="42" y="700" type="line"/>
      <point x="183" y="700" type="line"/>
      <point x="183" y="0" type="line"/>
    </contour>
    <contour>
      <point x="237" y="0" type="curve"/>
      <point x="237" y="141" type="line"/>
      <point x="243" y="141"/>
      <point x="292" y="149"/>
      <point x="293" y="197" type="curve" smooth="yes"/>
      <point x="293" y="503" type="line"/>
      <point x="293" y="508"/>
      <point x="285" y="558"/>
      <point x="237" y="559" type="curve"/>
      <point x="237" y="700" type="line"/>
      <point x="380" y="700"/>
      <point x="434" y="566"/>
      <point x="434" y="503" type="curve"/>
      <point x="434" y="197" type="line"/>
      <point x="434" y="50"/>
      <point x="297" y="0"/>
    </contour>
  </outline>
</glyph>
<glyph name="F" format="1">
  <advance width="432"/>
  <unicode hex="0046"/>
  <outline>
    <contour>
      <point x="42" y="1" type="line"/>
      <point x="42" y="700" type="line"/>
      <point x="406" y="700" type="line"/>
      <point x="406" y="560" type="line"/>
      <point x="183" y="560" type="line"/>
      <point x="183" y="418" type="line"/>
      <point x="312" y="418" type="line"/>
      <point x="312" y="277" type="line"/>
      <point x="183" y="277" type="line"/>
      <point x="183" y="1" type="line"/>
    </contour>
  </outline>
</glyph>
<glyph name="H" format="1">
  <advance width="495"/>
  <unicode hex="0048"/>
  <outline>
    <contour>
      <point x="40" y="0" type="line"/>
      <point x="40" y="700" type="line"/>
      <point x="181" y="700" type="line"/>
      <point x="181" y="421" type="line"/>
      <point x="220" y="421" type="line"/>
      <point x="220" y="283" type="line"/>
      <point x="181" y="283" type="line"/>
      <point x="181" y="0" type="line"/>
    </contour>
    <contour>
      <point x="275" y="283" type="line"/>
      <point x="275" y="421" type="line"/>
      <point x="314" y="421" type="line"/>
      <point x="314" y="700" type="line"/>
      <point x="455" y="700" type="line"/>
      <point x="455" y="0" type="line"/>
      <point x="314" y="0" type="line"/>
      <point x="314" y="283" type="line"/>
    </contour>
  </outline>
</glyph>
<glyph name="K" format="1">
  <advance width="488"/>
  <unicode hex="004B"/>
  <outline>
    <contour>
      <point x="42" y="0" type="line"/>
      <point x="42" y="700" type="line"/>
      <point x="183" y="700" type="line"/>
      <point x="183" y="0" type="line"/>
    </contour>
    <contour>
      <point x="223" y="341" type="line"/>
      <point x="330" y="700" type="line"/>
      <point x="469" y="700" type="line"/>
      <point x="363" y="341" type="line"/>
      <point x="473" y="0" type="line"/>
      <point x="335" y="0" type="line"/>
    </contour>
  </outline>
</glyph>
<glyph name="L" format="1">
  <advance width="433"/>
  <unicode hex="004C"/>
  <outline>
    <contour>
      <point x="42" y="0" type="line"/>
      <point x="42" y="700" type="line"/>
      <point x="183" y="700" type="line"/>
      <point x="183" y="140" type="line"/>
      <point x="418" y="140" type="line"/>
      <point x="418" y="0" type="line"/>
    </contour>
  </outline>
</glyph>
<glyph name="N" format="1">
  <advance width="529"/>
  <unicode hex="004E"/>
  <outline>
    <contour>
      <point x="42" y="0" type="line"/>
      <point x="42" y="492" type="line"/>
      <point x="50" y="492" type="line"/>
      <point x="183" y="278" type="line"/>
      <point x="183" y="0" type="line"/>
    </contour>
    <contour>
      <point x="42" y="608" type="line"/>
      <point x="42" y="700" type="line"/>
      <point x="157" y="700" type="line"/>
      <point x="487" y="168" type="line"/>
      <point x="487" y="0" type="line"/>
      <point x="420" y="0" type="line"/>
    </contour>
    <contour>
      <point x="346" y="498" type="line"/>
      <point x="346" y="700" type="line"/>
      <point x="487" y="700" type="line"/>
      <point x="487" y="284" type="line"/>
      <point x="479" y="284" type="line"/>
    </contour>
  </outline>
</glyph>
<glyph name="P" format="1">
  <advance width="479"/>
  <unicode hex="0050"/>
  <outline>
    <contour>
      <point x="42" y="0" type="line"/>
      <point x="42" y="700" type="line"/>
      <point x="183" y="700" type="line"/>
      <point x="183" y="0" type="line"/>
    </contour>
    <contour>
      <point x="237" y="319" type="curve"/>
      <point x="237" y="457" type="line"/>
      <point x="270" y="457" type="line" smooth="yes"/>
      <point x="277" y="457"/>
      <point x="321" y="458"/>
      <point x="321" y="508" type="curve" smooth="yes"/>
      <point x="321" y="559"/>
      <point x="279" y="561"/>
      <point x="270" y="561" type="curve" smooth="yes"/>
      <point x="237" y="561" type="line"/>
      <point x="237" y="700" type="line"/>
      <point x="250.021" y="700"/>
      <point x="262.343" y="700.753"/>
      <point x="274" y="700" type="curve"/>
      <point x="421.38" y="700.23"/>
      <point x="464" y="618.365"/>
      <point x="464" y="512" type="curve" smooth="yes"/>
      <point x="464" y="380.767"/>
      <point x="416.046" y="316.958"/>
      <point x="274" y="319" type="curve"/>
      <point x="262.249" y="318.286"/>
      <point x="249.919" y="319"/>
    </contour>
  </outline>
</glyph>
<glyph name="backslash" format="1">
  <advance width="385"/>
  <unicode hex="005C"/>
  <outline>
    <contour>
      <point x="42" y="716" type="line"/>
      <point x="168" y="716" type="line"/>
      <point x="343" y="-23" type="line"/>
      <point x="216" y="-23" type="line"/>
    </contour>
  </outline>
</glyph>
<glyph name="asciicircum" format="1">
  <advance width="506"/>
  <unicode hex="005E"/>
  <outline>
    <contour>
      <point x="60" y="460" type="line"/>
      <point x="209" y="756" type="line"/>
      <point x="297" y="756" type="line"/>
      <point x="446" y="460" type="line"/>
      <point x="323" y="460" type="line"/>
      <point x="252" y="603" type="line"/>
      <point x="182" y="460" type="line"/>
    </contour>
  </outline>
</glyph>
<glyph name="a" format="1">
  <advance width="472"/>
  <unicode hex="0061"/>
  <outline>
    <contour>
      <point x="24.7002" y="132" type="curve" smooth="yes"/>
      <point x="24.7002" y="182.601" type="line" smooth="yes"/>
      <point x="24.7002" y="218.9"/>
      <point x="32.4004" y="255.2"/>
      <point x="78.6006" y="281.601" type="curve" smooth="yes"/>
      <point x="125.9" y="309.101"/>
      <point x="290.9" y="341"/>
      <point x="290.9" y="385" type="curve" smooth="yes"/>
      <point x="290.9" y="392.734"/>
      <point x="290.9" y="400.468"/>
      <point x="290.9" y="408.2" type="curve" smooth="yes"/>
      <point x="290.9" y="429.452"/>
      <point x="278.931" y="446.369"/>
      <point x="246.9" y="446.7" type="curve"/>
      <point x="246.9" y="569.801" type="line"/>
      <point x="362.188" y="569.801"/>
      <point x="418.5" y="477.417"/>
      <point x="418.5" y="416.9" type="curve" smooth="yes"/>
      <point x="418.5" y="156.2" type="line" smooth="yes"/>
      <point x="418.5" y="148.137"/>
      <point x="421.71" y="124.301"/>
      <point x="447.101" y="124.301" type="curve"/>
      <point x="447.101" y="0" type="line"/>
      <point x="404.39" y="0"/>
      <point x="372.175" y="12.3721"/>
      <point x="349.2" y="31.9004" type="curve"/>
      <point x="322.847" y="11.2764"/>
      <point x="289.748" y="0"/>
      <point x="248" y="0" type="curve"/>
      <point x="248" y="123.2" type="line"/>
      <point x="282.922" y="123.2"/>
      <point x="290.9" y="148.946"/>
      <point x="290.9" y="162.801" type="curve" smooth="yes"/>
      <point x="290.9" y="244.601" type="line"/>
      <point x="249.101" y="220.4"/>
      <point x="164.4" y="203.9"/>
      <point x="149" y="196.2" type="curve" smooth="yes"/>
      <point x="142.4" y="192.9"/>
      <point x="135.801" y="185.2"/>
      <point x="135.801" y="173.101" type="curve" smooth="yes"/>
      <point x="135.801" y="158.801" type="line" smooth="yes"/>
      <point x="135.801" y="135.4"/>
      <point x="146.089" y="123.2"/>
      <point x="194.101" y="123.2" type="curve"/>
      <point x="194.101" y="0" type="line"/>
      <point x="87.4004" y="0"/>
      <point x="24.7002" y="69.3008"/>
    </contour>
    <contour>
      <point x="32.4004" y="426.801" type="line"/>
      <point x="32.4004" y="508.481"/>
      <point x="116.778" y="569.801"/>
      <point x="195.2" y="569.801" type="curve"/>
      <point x="195.2" y="446.601" type="line"/>
      <point x="164.785" y="446.601"/>
      <point x="147.9" y="426.158"/>
      <point x="147.9" y="382.801" type="curve"/>
    </contour>
  </outline>
</glyph>
<glyph name="d" format="1">
  <advance width="461"/>
  <unicode hex="0064"/>
  <outline>
    <contour>
      <point x="30" y="154.99" type="curve" smooth="yes"/>
      <point x="30" y="414.59" type="line"/>
      <point x="31.1006" y="464.09"/>
      <point x="83.9004" y="567.49"/>
      <point x="195" y="567.49" type="curve" smooth="yes"/>
      <point x="228" y="567.49" type="line"/>
      <point x="228" y="437.69" type="line"/>
      <point x="195" y="437.69" type="line"/>
      <point x="165.3" y="436.59"/>
      <point x="159.8" y="412.39"/>
      <point x="159.8" y="410.19" type="curve" smooth="yes"/>
      <point x="159.8" y="157.19" type="line"/>
      <point x="159.8" y="154.99"/>
      <point x="166.4" y="129.69"/>
      <point x="197.2" y="129.69" type="curve" smooth="yes"/>
      <point x="228" y="129.69" type="line"/>
      <point x="228" y="-0.110352" type="line"/>
      <point x="197.2" y="-0.110352" type="line" smooth="yes"/>
      <point x="82.7998" y="-0.110352"/>
      <point x="30" y="106.59"/>
    </contour>
    <contour>
      <point x="280.8" y="-0.110352" type="line"/>
      <point x="281" y="716" type="line"/>
      <point x="419.601" y="716" type="line"/>
      <point x="419.4" y="-0.110352" type="line"/>
    </contour>
  </outline>
</glyph>
<glyph name="e" format="1">
  <advance width="485"/>
  <unicode hex="0065"/>
  <outline>
    <contour>
      <point x="37.8008" y="155.09" type="curve" smooth="yes"/>
      <point x="37.8008" y="416.69" type="line"/>
      <point x="38.9766" y="469.638"/>
      <point x="99.3594" y="569.59"/>
      <point x="214.9" y="569.59" type="curve"/>
      <point x="214.9" y="443.99" type="line"/>
      <point x="189.363" y="443.99"/>
      <point x="172" y="422.821"/>
      <point x="172" y="407.89" type="curve" smooth="yes"/>
      <point x="172" y="358.39" type="line"/>
      <point x="320.5" y="358.39" type="line"/>
      <point x="320.5" y="406.89" type="line" smooth="yes"/>
      <point x="320.5" y="439.482"/>
      <point x="293.259" y="444.19"/>
      <point x="268.801" y="444.19" type="curve"/>
      <point x="268.801" y="569.59" type="line"/>
      <point x="350.129" y="569.59"/>
      <point x="445.9" y="508.83"/>
      <point x="445.9" y="417.79" type="curve" smooth="yes"/>
      <point x="445.9" y="228.79" type="line"/>
      <point x="172" y="228.79" type="line"/>
      <point x="172" y="155.09" type="line" smooth="yes"/>
      <point x="172" y="139.521"/>
      <point x="182.227" y="122.79"/>
      <point x="216" y="122.79" type="curve"/>
      <point x="216" y="-0.00976562" type="line"/>
      <point x="98.3311" y="-0.00976562"/>
      <point x="37.8008" y="102.095"/>
    </contour>
    <contour>
      <point x="268.801" y="-0.00976562" type="curve"/>
      <point x="268.801" y="122.09" type="line"/>
      <point x="311.067" y="122.09"/>
      <point x="330.221" y="145.183"/>
      <point x="338.101" y="172.69" type="curve"/>
      <point x="447" y="131.99" type="line"/>
      <point x="431.57" y="68.0991"/>
      <point x="365.447" y="-0.00976562"/>
    </contour>
  </outline>
</glyph>
<glyph name="g" format="1">
  <advance width="456"/>
  <unicode hex="0067"/>
  <outline>
    <contour>
      <point x="20" y="-190.06" type="line"/>
      <point x="50.8008" y="-66.8604" type="line"/>
      <point x="248.801" y="-66.8604" type="line"/>
      <point x="282.9" y="-65.7598"/>
      <point x="290.601" y="-38.2598"/>
      <point x="290.601" y="-34.96" type="curve" smooth="yes"/>
      <point x="290.601" y="12.3398" type="line"/>
      <point x="276.424" y="8.796"/>
      <point x="262.311" y="7.94043"/>
      <point x="245.5" y="7.94043" type="curve"/>
      <point x="245.5" y="131.94" type="line"/>
      <point x="281.047" y="131.94"/>
      <point x="290.601" y="150.384"/>
      <point x="290.601" y="164.94" type="curve" smooth="yes"/>
      <point x="290.601" y="420.44" type="line" smooth="yes"/>
      <point x="290.601" y="425.789"/>
      <point x="280.997" y="452.34"/>
      <point x="245.5" y="452.34" type="curve"/>
      <point x="245.5" y="576.64" type="line"/>
      <point x="261.431" y="576.64"/>
      <point x="277.353" y="574.753"/>
      <point x="290.601" y="571.14" type="curve"/>
      <point x="290.601" y="576.64" type="line"/>
      <point x="419.301" y="576.64" type="line"/>
      <point x="419.301" y="-34.96" type="line" smooth="yes"/>
      <point x="419.301" y="-82.2598"/>
      <point x="364.301" y="-188.96"/>
      <point x="251" y="-190.06" type="curve"/>
    </contour>
    <contour>
      <point x="29.9004" y="161.94" type="curve" smooth="yes"/>
      <point x="29.9004" y="424.84" type="line"/>
      <point x="31.0473" y="475.322"/>
      <point x="86.1908" y="576.64"/>
      <point x="202.601" y="576.64" type="curve"/>
      <point x="202.601" y="452.34" type="line"/>
      <point x="166.155" y="452.34"/>
      <point x="156.4" y="426.833"/>
      <point x="156.4" y="421.54" type="curve" smooth="yes"/>
      <point x="156.4" y="163.04" type="line" smooth="yes"/>
      <point x="156.4" y="149.766"/>
      <point x="167.198" y="132.24"/>
      <point x="202.601" y="132.24" type="curve"/>
      <point x="202.601" y="7.94043" type="line"/>
      <point x="85.12" y="7.94043"/>
      <point x="29.9004" y="112.515"/>
    </contour>
  </outline>
</glyph>
<glyph name="i" format="1">
  <advance width="245"/>
  <unicode hex="0069"/>
  <outline>
    <contour>
      <point x="50.4307" y="650.694" type="curve" smooth="yes"/>
      <point x="50.4307" y="690.295"/>
      <point x="83.1006" y="722.966"/>
      <point x="122.7" y="722.966" type="curve" smooth="yes"/>
      <point x="162.3" y="722.966"/>
      <point x="194.97" y="690.295"/>
      <point x="194.97" y="650.694" type="curve" smooth="yes"/>
      <point x="194.97" y="612.085"/>
      <point x="162.3" y="579.415"/>
      <point x="122.7" y="579.415" type="curve" smooth="yes"/>
      <point x="83.1006" y="579.415"/>
      <point x="50.4307" y="612.085"/>
    </contour>
    <contour>
      <point x="56.7002" y="-0.360352" type="line"/>
      <point x="56.7002" y="540.24" type="line"/>
      <point x="190.9" y="540.24" type="line"/>
      <point x="190.9" y="-0.360352" type="line"/>
    </contour>
  </outline>
</glyph>
<glyph name="j" format="1">
  <advance width="242"/>
  <unicode hex="006A"/>
  <outline>
    <contour>
      <point x="-42" y="-199.36" type="line"/>
      <point x="-12.2998" y="-70.6602" type="line"/>
      <point x="17.4004" y="-70.6602" type="line"/>
      <point x="48.2002" y="-69.5596"/>
      <point x="53.7002" y="-44.2598"/>
      <point x="53.7002" y="-42.0596" type="curve" smooth="yes"/>
      <point x="53.7002" y="538.34" type="line"/>
      <point x="187.9" y="538.34" type="line"/>
      <point x="187.9" y="-42.0596" type="line" smooth="yes"/>
      <point x="187.9" y="-93.7598"/>
      <point x="132.9" y="-199.36"/>
      <point x="20.7002" y="-199.36" type="curve" smooth="yes"/>
    </contour>
    <contour>
      <point x="47.4307" y="661.65" type="curve" smooth="yes"/>
      <point x="47.4307" y="701.25"/>
      <point x="80.1006" y="734.91"/>
      <point x="119.7" y="734.91" type="curve" smooth="yes"/>
      <point x="159.3" y="734.91"/>
      <point x="191.97" y="701.25"/>
      <point x="191.97" y="661.65" type="curve" smooth="yes"/>
      <point x="191.97" y="622.05"/>
      <point x="159.3" y="590.37"/>
      <point x="119.7" y="590.37" type="curve" smooth="yes"/>
      <point x="80.1006" y="590.37"/>
      <point x="47.4307" y="622.05"/>
    </contour>
  </outline>
</glyph>
<glyph name="l" format="1">
  <advance width="228"/>
  <unicode hex="006C"/>
  <outline>
    <contour>
      <point x="41.9004" y="-9.11035" type="line"/>
      <point x="41.9004" y="706.69" type="line"/>
      <point x="186" y="706.69" type="line"/>
      <point x="186" y="-9.11035" type="line"/>
    </contour>
  </outline>
</glyph>
<glyph name="p" format="1">
  <advance width="481"/>
  <unicode hex="0070"/>
  <outline>
    <contour>
      <point x="304.3" y="412.699" type="line"/>
      <point x="304.3" y="414.899"/>
      <point x="298.8" y="440.199"/>
      <point x="263.6" y="440.199" type="curve" smooth="yes"/>
      <point x="229.5" y="440.199" type="line"/>
      <point x="229.5" y="570" type="line"/>
      <point x="263.6" y="570" type="line" smooth="yes"/>
      <point x="381.3" y="570"/>
      <point x="435.595" y="464.498"/>
      <point x="435.5" y="415" type="curve" smooth="yes"/>
      <point x="435.5" y="155.201" type="line" smooth="yes"/>
      <point x="435.595" y="105.703"/>
      <point x="381.3" y="0"/>
      <point x="263.6" y="0" type="curve" smooth="yes"/>
      <point x="229.5" y="0" type="line"/>
      <point x="229.5" y="129.801" type="line"/>
      <point x="263.6" y="129.801" type="line" smooth="yes"/>
      <point x="298.8" y="129.801"/>
      <point x="304.3" y="155.101"/>
      <point x="304.3" y="157.301" type="curve"/>
    </contour>
    <contour>
      <point x="38.5" y="-199" type="line"/>
      <point x="38.5" y="570" type="line"/>
      <point x="179.5" y="570" type="line"/>
      <point x="179.5" y="-199" type="line"/>
    </contour>
  </outline>
</glyph>
<glyph name="q" format="1">
  <advance width="476"/>
  <unicode hex="0071"/>
  <outline>
    <contour>
      <point x="211.9" y="0" type="line" smooth="yes"/>
      <point x="94.2002" y="0"/>
      <point x="39.9053" y="105.703"/>
      <point x="40" y="155.201" type="curve" smooth="yes"/>
      <point x="40" y="415" type="line" smooth="yes"/>
      <point x="39.9053" y="464.498"/>
      <point x="94.2002" y="570"/>
      <point x="211.9" y="570" type="curve" smooth="yes"/>
      <point x="246" y="570" type="line"/>
      <point x="246" y="440.199" type="line"/>
      <point x="211.9" y="440.199" type="line" smooth="yes"/>
      <point x="176.7" y="440.199"/>
      <point x="171.2" y="414.899"/>
      <point x="171.2" y="412.699" type="curve"/>
      <point x="171.2" y="157.301" type="line"/>
      <point x="171.2" y="155.101"/>
      <point x="176.7" y="129.801"/>
      <point x="211.9" y="129.801" type="curve" smooth="yes"/>
      <point x="246" y="129.801" type="line"/>
      <point x="246" y="0" type="line"/>
    </contour>
    <contour>
      <point x="296" y="-199" type="line"/>
      <point x="296" y="570" type="line"/>
      <point x="437" y="570" type="line"/>
      <point x="437" y="-199" type="line"/>
    </contour>
  </outline>
</glyph>
<glyph name="s" format="1">
  <advance width="454"/>
  <unicode hex="0073"/>
  <outline>
    <contour>
      <point x="20.4004" y="149.79" type="curve"/>
      <point x="143.601" y="172.89" type="line"/>
      <point x="143.601" y="142.792"/>
      <point x="172.817" y="122.149"/>
      <point x="199.7" y="121.19" type="curve"/>
      <point x="199.7" y="-5.30957" type="line"/>
      <point x="71.6772" y="-5.30957"/>
      <point x="19.9887" y="78.0256"/>
    </contour>
    <contour>
      <point x="25.9004" y="414.29" type="curve" smooth="yes"/>
      <point x="25.9004" y="528.335"/>
      <point x="135.723" y="574.89"/>
      <point x="197.5" y="574.89" type="curve"/>
      <point x="197.5" y="450.79" type="line"/>
      <point x="152.196" y="450.79"/>
      <point x="149.101" y="425.382"/>
      <point x="149.101" y="414.39" type="curve" smooth="yes"/>
      <point x="149.101" y="391.862"/>
      <point x="165.601" y="359.581"/>
      <point x="320.7" y="325.79" type="curve" smooth="yes"/>
      <point x="377.9" y="314.79"/>
      <point x="434" y="267.49"/>
      <point x="434" y="176.19" type="curve" smooth="yes"/>
      <point x="434" y="60.9609"/>
      <point x="349.341" y="-5.30957"/>
      <point x="244.8" y="-5.30957" type="curve"/>
      <point x="244.8" y="121.09" type="line"/>
      <point x="263.565" y="121.09"/>
      <point x="305.3" y="132.129"/>
      <point x="305.3" y="168.49" type="curve" smooth="yes"/>
      <point x="305.3" y="217.99"/>
      <point x="182.101" y="226.79"/>
      <point x="119.4" y="255.39" type="curve" smooth="yes"/>
      <point x="65.5" y="281.79"/>
      <point x="25.9004" y="321.89"/>
    </contour>
    <contour>
      <point x="242.601" y="450.59" type="curve"/>
      <point x="243.7" y="574.89" type="line"/>
      <point x="350.529" y="574.89"/>
      <point x="424.101" y="491.715"/>
      <point x="424.101" y="417.59" type="curve"/>
      <point x="300.9" y="396.69" type="line"/>
      <point x="300.9" y="445.65"/>
      <point x="253.177" y="450.59"/>
    </contour>
  </outline>
</glyph>
<glyph name="t" format="1">
  <advance width="324"/>
  <unicode hex="0074"/>
  <outline>
    <contour>
      <point x="14" y="441" type="line"/>
      <point x="14" y="570" type="line"/>
      <point x="84" y="570" type="line"/>
      <point x="83.7998" y="716" type="line"/>
      <point x="218" y="716" type="line"/>
      <point x="218" y="570" type="line"/>
      <point x="284" y="570" type="line"/>
      <point x="284" y="440.2" type="line"/>
      <point x="218" y="440.2" type="line"/>
      <point x="218.301" y="174.9" type="line" smooth="yes"/>
      <point x="218.318" y="159.5"/>
      <point x="223.801" y="137.5"/>
      <point x="254.601" y="137.5" type="curve" smooth="yes"/>
      <point x="284.301" y="137.5" type="line"/>
      <point x="314" y="0" type="line"/>
      <point x="253.5" y="0" type="line" smooth="yes"/>
      <point x="119.301" y="0"/>
      <point x="84.1452" y="72.5996"/>
      <point x="84.1006" y="184.8" type="curve" smooth="yes"/>
      <point x="84" y="441" type="line"/>
    </contour>
  </outline>
</glyph>
<glyph name="u" format="1">
  <advance width="487"/>
  <unicode hex="0075"/>
  <outline>
    <contour>
      <point x="37.5996" y="151.04" type="curve" smooth="yes"/>
      <point x="37.5996" y="565.74" type="line"/>
      <point x="174" y="565.74" type="line"/>
      <point x="174" y="166.54" type="line" smooth="yes"/>
      <point x="174" y="147.753"/>
      <point x="184.214" y="127.94"/>
      <point x="220.2" y="127.94" type="curve"/>
      <point x="220.2" y="-5.16016" type="line"/>
      <point x="99.2921" y="-5.16016"/>
      <point x="37.5996" y="94.8031"/>
    </contour>
    <contour>
      <point x="266.399" y="-5.16016" type="curve"/>
      <point x="266.399" y="127.94" type="line"/>
      <point x="302.321" y="127.94"/>
      <point x="312.6" y="149.135"/>
      <point x="312.6" y="166.54" type="curve" smooth="yes"/>
      <point x="312.6" y="565.74" type="line"/>
      <point x="449" y="565.74" type="line"/>
      <point x="449" y="151.04" type="line" smooth="yes"/>
      <point x="449" y="98.0997"/>
      <point x="387.31" y="-5.16016"/>
    </contour>
  </outline>
</glyph>
<glyph name="y" format="1">
  <advance width="429"/>
  <unicode hex="0079"/>
  <outline>
    <contour>
      <point x="6.90039" y="569.9" type="line"/>
      <point x="151" y="570" type="line"/>
      <point x="284.1" y="125.601" type="line"/>
      <point x="175.4" y="-199.699" type="line"/>
      <point x="36.7998" y="-199.699" type="line"/>
      <point x="136.7" y="127.801" type="line"/>
    </contour>
    <contour>
      <point x="241.2" y="435.801" type="line"/>
      <point x="283" y="570" type="line"/>
      <point x="427.1" y="569.9" type="line"/>
      <point x="313.8" y="232.301" type="line"/>
      <point x="300.6" y="232.301" type="line"/>
    </contour>
  </outline>
</glyph>
<glyph name="exclamdown" format="1">
  <advance width="245"/>
  <unicode hex="00A1"/>
  <outline>
    <contour>
      <point x="21.4004" y="494.64" type="curve" smooth="yes"/>
      <point x="21.4004" y="538.64"/>
      <point x="57.7002" y="574.94"/>
      <point x="101.7" y="574.94" type="curve" smooth="yes"/>
      <point x="145.7" y="574.94"/>
      <point x="182" y="538.64"/>
      <point x="182" y="494.64" type="curve" smooth="yes"/>
      <point x="182" y="451.74"/>
      <point x="145.7" y="415.44"/>
      <point x="101.7" y="415.44" type="curve" smooth="yes"/>
      <point x="57.7002" y="415.44"/>
      <point x="21.4004" y="451.74"/>
    </contour>
    <contour>
      <point x="35.7002" y="-198.36" type="line"/>
      <point x="35.7002" y="369.24" type="line"/>
      <point x="169.9" y="369.24" type="line"/>
      <point x="169.9" y="-198.36" type="line"/>
    </contour>
  </outline>
</glyph>
<glyph name="cent" format="1">
  <advance width="456"/>
  <unicode hex="00A2"/>
  <outline>
    <contour>
      <point x="261" y="31" type="line"/>
      <point x="312" y="31" type="line"/>
      <point x="312" y="-94" type="line"/>
      <point x="261" y="-94" type="line"/>
    </contour>
    <contour>
      <point x="165" y="31" type="line"/>
      <point x="215" y="31" type="line"/>
      <point x="215" y="-94" type="line"/>
      <point x="165" y="-94" type="line"/>
    </contour>
    <contour>
      <point x="261" y="662" type="line"/>
      <point x="312" y="662" type="line"/>
      <point x="312" y="537" type="line"/>
      <point x="261" y="537" type="line"/>
    </contour>
    <contour>
      <point x="165" y="662" type="line"/>
      <point x="215" y="662" type="line"/>
      <point x="215" y="537" type="line"/>
      <point x="165" y="537" type="line"/>
    </contour>
    <contour>
      <point x="37.8008" y="155.14" type="curve" smooth="yes"/>
      <point x="37.8008" y="414.74" type="line"/>
      <point x="38.9948" y="467.295"/>
      <point x="95.4275" y="567.64"/>
      <point x="214.9" y="567.64" type="curve"/>
      <point x="214.9" y="440.04" type="line"/>
      <point x="178.811" y="440.04"/>
      <point x="168.7" y="420.298"/>
      <point x="168.7" y="399.54" type="curve" smooth="yes"/>
      <point x="168.7" y="165.14" type="line" smooth="yes"/>
      <point x="168.7" y="151.299"/>
      <point x="181.532" y="129.483"/>
      <point x="214.7" y="128.44" type="curve"/>
      <point x="214.7" y="0.0400391" type="line"/>
      <point x="85.0367" y="0.0400391"/>
      <point x="37.8008" y="103.221"/>
    </contour>
    <contour>
      <point x="261.101" y="438.94" type="curve"/>
      <point x="261.101" y="567.64" type="line"/>
      <point x="348.785" y="567.64"/>
      <point x="423.9" y="495.669"/>
      <point x="423.9" y="409.24" type="curve"/>
      <point x="301.801" y="363.04" type="line"/>
      <point x="301.801" y="399.04" type="line" smooth="yes"/>
      <point x="301.801" y="427.521"/>
      <point x="281.255" y="438.94"/>
    </contour>
    <contour>
      <point x="261.101" y="-1.05957" type="curve"/>
      <point x="261.101" y="127.64" type="line"/>
      <point x="286.439" y="127.64"/>
      <point x="313.9" y="135.486"/>
      <point x="313.9" y="171.64" type="curve" smooth="yes"/>
      <point x="313.9" y="204.64" type="line"/>
      <point x="436" y="158.44" type="line"/>
      <point x="436" y="71.3343"/>
      <point x="349.495" y="-1.05957"/>
    </contour>
  </outline>
</glyph>
<glyph name="brokenbar" format="1">
  <advance width="214"/>
  <unicode hex="00A6"/>
  <outline>
    <contour>
      <point x="42" y="-140" type="line"/>
      <point x="42" y="217" type="line"/>
      <point x="164" y="217" type="line"/>
      <point x="164" y="-140" type="line"/>
    </contour>
    <contour>
      <point x="42" y="407" type="line"/>
      <point x="42" y="764" type="line"/>
      <point x="164" y="764" type="line"/>
      <point x="164" y="407" type="line"/>
    </contour>
  </outline>
</glyph>
<glyph name="dieresis" format="1">
  <advance width="430"/>
  <unicode hex="00A8"/>
  <outline>
    <contour>
      <point x="55" y="678" type="curve" smooth="yes"/>
      <point x="55" y="720"/>
      <point x="88" y="754"/>
      <point x="130" y="754" type="curve" smooth="yes"/>
      <point x="172" y="754"/>
      <point x="205" y="720"/>
      <point x="205" y="678" type="curve" smooth="yes"/>
      <point x="205" y="636"/>
      <point x="172" y="603"/>
      <point x="130" y="603" type="curve" smooth="yes"/>
      <point x="88" y="603"/>
      <point x="55" y="636"/>
    </contour>
    <contour>
      <point x="225" y="678" type="curve" smooth="yes"/>
      <point x="225" y="720"/>
      <point x="258" y="754"/>
      <point x="300" y="754" type="curve" smooth="yes"/>
      <point x="342" y="754"/>
      <point x="375" y="720"/>
      <point x="375" y="678" type="curve" smooth="yes"/>
      <point x="375" y="636"/>
      <point x="342" y="603"/>
      <point x="300" y="603" type="curve" smooth="yes"/>
      <point x="258" y="603"/>
      <point x="225" y="636"/>
    </contour>
  </outline>
</glyph>
<glyph name="twosuperior" format="1">
  <advance width="223"/>
  <unicode hex="00B2"/>
  <outline>
    <contour>
      <point x="7.97461" y="623.95" type="line"/>
      <point x="7.97461" y="664.9"/>
      <point x="46.2246" y="704.5"/>
      <point x="90.3252" y="704.5" type="curve"/>
      <point x="90.3252" y="646" type="line"/>
      <point x="82.6748" y="646"/>
      <point x="62.4248" y="639.25"/>
      <point x="62.4248" y="613.6" type="curve"/>
    </contour>
    <contour>
      <point x="17.4248" y="389.5" type="line"/>
      <point x="17.4248" y="451.6" type="line"/>
      <point x="199.225" y="451.6" type="line"/>
      <point x="199.225" y="389.5" type="line"/>
    </contour>
    <contour>
      <point x="17.4248" y="475" type="line"/>
      <point x="17.4248" y="514.522"/>
      <point x="63.7754" y="538.9"/>
      <point x="91.2246" y="560.05" type="curve" smooth="yes"/>
      <point x="114.69" y="578.13"/>
      <point x="145.225" y="594.925"/>
      <point x="145.225" y="615.85" type="curve" smooth="yes"/>
      <point x="145.225" y="639.25"/>
      <point x="126.775" y="646"/>
      <point x="115.075" y="646" type="curve"/>
      <point x="115.075" y="704.5" type="line"/>
      <point x="177.397" y="704.5"/>
      <point x="203.725" y="661.577"/>
      <point x="203.725" y="616.3" type="curve" smooth="yes"/>
      <point x="203.725" y="579.906"/>
      <point x="188.892" y="559.221"/>
      <point x="148.825" y="530.35" type="curve" smooth="yes"/>
      <point x="118.225" y="508.3"/>
      <point x="88.7051" y="495.242"/>
      <point x="88.5254" y="475" type="curve"/>
    </contour>
  </outline>
</glyph>
<glyph name="uni00B5" format="1">
  <advance width="503"/>
  <unicode hex="00B5"/>
  <outline>
    <contour>
      <point x="48" y="0" type="line"/>
      <point x="48" y="698" type="line"/>
      <point x="172" y="698" type="line"/>
      <point x="172" y="326" type="line" smooth="yes"/>
      <point x="172" y="313.378"/>
      <point x="181.285" y="300"/>
      <point x="214" y="300" type="curve"/>
      <point x="214" y="179" type="line"/>
      <point x="198.644" y="179"/>
      <point x="185.638" y="179.591"/>
      <point x="172" y="183" type="curve"/>
      <point x="172" y="0" type="line"/>
    </contour>
    <contour>
      <point x="256" y="179" type="curve"/>
      <point x="256" y="300" type="line"/>
      <point x="288.656" y="300"/>
      <point x="298" y="313.36"/>
      <point x="298" y="326" type="curve" smooth="yes"/>
      <point x="298" y="698" type="line"/>
      <point x="298" y="700" type="line"/>
      <point x="422" y="700" type="line"/>
      <point x="422" y="698" type="line"/>
      <point x="422" y="328" type="line" smooth="yes"/>
      <point x="422" y="319.081"/>
      <point x="428.285" y="302"/>
      <point x="464" y="302" type="curve"/>
      <point x="464" y="181" type="line"/>
      <point x="420.76" y="181"/>
      <point x="387.618" y="192.77"/>
      <point x="361" y="213" type="curve"/>
      <point x="333.356" y="191.736"/>
      <point x="300.347" y="179"/>
    </contour>
  </outline>
</glyph>
<glyph name="onequarter" format="1">
  <advance width="560"/>
  <unicode hex="00BC"/>
  <outline>
    <contour>
      <point x="26" y="-2" type="line"/>
      <point x="458" y="702" type="line"/>
      <point x="534" y="702" type="line"/>
      <point x="109" y="-2" type="line"/>
    </contour>
    <component base="four" xScale="0.5" yScale="0.5" xOffset="270.25" yOffset="-2.75"/>
    <component base="one" xScale="0.5" yScale="0.5" xOffset="60.25" yOffset="352"/>
  </outline>
</glyph>
<glyph name="onehalf" format="1">
  <advance width="582"/>
  <unicode hex="00BD"/>
  <outline>
    <contour>
      <point x="306.25" y="0" type="line"/>
      <point x="306.25" y="75" type="line"/>
      <point x="542.25" y="75" type="line"/>
      <point x="542.25" y="0" type="line"/>
    </contour>
    <contour>
      <point x="0" y="0" type="line"/>
      <point x="432" y="700" type="line"/>
      <point x="508" y="700" type="line"/>
      <point x="83" y="0" type="line"/>
    </contour>
    <contour>
      <point x="49.25" y="607" type="line"/>
      <point x="49.25" y="670" type="line"/>
      <point x="87.25" y="700" type="line"/>
      <point x="167.75" y="700" type="line"/>
      <point x="167.75" y="350" type="line"/>
      <point x="87.25" y="350" type="line"/>
      <point x="87.25" y="607" type="line"/>
    </contour>
    <contour>
      <point x="306" y="248" type="line"/>
      <point x="306" y="308.5"/>
      <point x="362.25" y="350"/>
      <point x="411.25" y="350" type="curve"/>
      <point x="411.25" y="273" type="line"/>
      <point x="399.75" y="272"/>
      <point x="377" y="263.5"/>
      <point x="377" y="235" type="curve"/>
    </contour>
    <contour>
      <point x="306.25" y="101" type="line"/>
      <point x="306.25" y="141.616"/>
      <point x="347.7545" y="163.46875"/>
      <point x="389.259" y="181.377875" type="curve" smooth="yes"/>
      <point x="430.7635" y="199.287"/>
      <point x="472.268" y="213.2525"/>
      <point x="472.268" y="238.094" type="curve" smooth="yes"/>
      <point x="472.268" y="264.945"/>
      <point x="453.66" y="272"/>
      <point x="438.75" y="273" type="curve"/>
      <point x="438.75" y="350" type="line"/>
      <point x="507.997" y="350"/>
      <point x="552.25" y="307.308"/>
      <point x="552.25" y="238" type="curve" smooth="yes"/>
      <point x="552.25" y="188.9865"/>
      <point x="514.86475" y="162.68475"/>
      <point x="477.547125" y="144.66225" type="curve" smooth="yes"/>
      <point x="440.2295" y="126.63975"/>
      <point x="402.9795" y="116.8965"/>
      <point x="403.25" y="101" type="curve"/>
    </contour>
  </outline>
</glyph>
<glyph name="threequarters" format="1">
  <advance width="584"/>
  <unicode hex="00BE"/>
  <outline>
    <contour>
      <point x="50" y="-2" type="line"/>
      <point x="482" y="702" type="line"/>
      <point x="558" y="702" type="line"/>
      <point x="133" y="-2" type="line"/>
    </contour>
    <component base="three" xScale="0.5" yScale="0.5" xOffset="6.5" yOffset="350"/>
    <component base="four" xScale="0.5" yScale="0.5" xOffset="290.25" yOffset="-2.75"/>
  </outline>
</glyph>
<glyph name="ae" format="1">
  <advance width="666"/>
  <unicode hex="00E6"/>
  <outline>
    <contour>
      <point x="26" y="110" type="curve" smooth="yes"/>
      <point x="26" y="180" type="line" smooth="yes"/>
      <point x="26" y="289.187"/>
      <point x="268" y="283.161"/>
      <point x="268" y="351" type="curve" smooth="yes"/>
      <point x="268" y="373" type="line" smooth="yes"/>
      <point x="268" y="395.242"/>
      <point x="240.626" y="411.052"/>
      <point x="211" y="411.12" type="curve" smooth="yes"/>
      <point x="176.042" y="411.221"/>
      <point x="138" y="392.339"/>
      <point x="138" y="349" type="curve"/>
      <point x="43" y="375" type="line"/>
      <point x="43" y="455.338"/>
      <point x="119.651" y="519"/>
      <point x="207" y="519" type="curve" smooth="yes"/>
      <point x="263.311" y="519"/>
      <point x="298.192" y="506.365"/>
      <point x="329" y="483" type="curve"/>
      <point x="354.637" y="503.296"/>
      <point x="386.656" y="516"/>
      <point x="429" y="516" type="curve"/>
      <point x="429" y="401" type="line"/>
      <point x="401.374" y="401"/>
      <point x="384.356" y="381.22"/>
      <point x="384" y="363" type="curve"/>
      <point x="384" y="324" type="line"/>
      <point x="525" y="324" type="line"/>
      <point x="525" y="359" type="line" smooth="yes"/>
      <point x="525" y="386.846"/>
      <point x="500.235" y="401"/>
      <point x="478" y="401" type="curve"/>
      <point x="478" y="516" type="line"/>
      <point x="551.935" y="516"/>
      <point x="639" y="453.491"/>
      <point x="639" y="378" type="curve" smooth="yes"/>
      <point x="639" y="208" type="line"/>
      <point x="384" y="208" type="line"/>
      <point x="384" y="143" type="line" smooth="yes"/>
      <point x="384" y="110.256"/>
      <point x="413.877" y="108"/>
      <point x="450" y="108" type="curve" smooth="yes"/>
      <point x="503.201" y="108"/>
      <point x="532.298" y="116.973"/>
      <point x="541" y="157" type="curve"/>
      <point x="640" y="120" type="line"/>
      <point x="620.192" y="39.5286"/>
      <point x="546.206" y="0"/>
      <point x="454" y="0" type="curve" smooth="yes"/>
      <point x="396" y="0"/>
      <point x="351.406" y="3.39492"/>
      <point x="321" y="30" type="curve"/>
      <point x="297.042" y="11.2506"/>
      <point x="266.953" y="1"/>
      <point x="229" y="1" type="curve"/>
      <point x="229" y="113" type="line"/>
      <point x="260.747" y="113"/>
      <point x="268" y="144.588"/>
      <point x="268" y="149" type="curve" smooth="yes"/>
      <point x="268" y="227" type="line"/>
      <point x="220.897" y="199.73"/>
      <point x="127" y="198.287"/>
      <point x="127" y="162" type="curve" smooth="yes"/>
      <point x="127" y="149" type="line" smooth="yes"/>
      <point x="127" y="119.701"/>
      <point x="145.25" y="113"/>
      <point x="180" y="113" type="curve"/>
      <point x="180" y="1" type="line"/>
      <point x="83" y="1"/>
      <point x="26" y="53"/>
    </contour>
  </outline>
</glyph>
<glyph name="lslash" format="1">
  <advance width="424"/>
  <unicode hex="0142"/>
  <outline>
    <contour>
      <point x="26" y="302" type="line"/>
      <point x="326" y="536" type="line"/>
      <point x="398" y="443" type="line"/>
      <point x="98" y="209" type="line"/>
    </contour>
    <contour>
      <point x="158.9" y="-9.11035" type="line"/>
      <point x="158.9" y="706.69" type="line"/>
      <point x="303" y="706.69" type="line"/>
      <point x="303" y="-9.11035" type="line"/>
    </contour>
  </outline>
</glyph>
<glyph name="circumflex" format="1">
  <advance width="270"/>
  <unicode hex="02C6"/>
  <outline>
    <contour>
      <point x="26" y="514" type="line"/>
      <point x="101" y="666" type="line"/>
      <point x="167" y="666" type="line"/>
      <point x="244" y="514" type="line"/>
      <point x="162" y="514" type="line"/>
      <point x="134" y="571" type="line"/>
      <point x="107" y="514" type="line"/>
    </contour>
  </outline>
</glyph>
<glyph name="caron" format="1">
  <advance width="270"/>
  <unicode hex="02C7"/>
  <outline>
    <contour>
      <point x="26" y="666" type="line"/>
      <point x="107" y="666" type="line"/>
      <point x="134" y="609" type="line"/>
      <point x="162" y="666" type="line"/>
      <point x="244" y="666" type="line"/>
      <point x="167" y="514" type="line"/>
      <point x="101" y="514" type="line"/>
    </contour>
  </outline>
</glyph>
<glyph name="uni02C9" format="1">
  <advance width="416"/>
  <unicode hex="02C9"/>
  <outline>
    <contour>
      <point x="50" y="514" type="line"/>
      <point x="50" y="596" type="line"/>
      <point x="366" y="596" type="line"/>
      <point x="366" y="514" type="line"/>
    </contour>
  </outline>
</glyph>
<glyph name="pi" format="1">
  <advance width="421"/>
  <unicode hex="03C0"/>
  <outline>
    <contour>
      <point x="-28" y="389" type="line"/>
      <point x="-28" y="516" type="line"/>
      <point x="452" y="516" type="line"/>
      <point x="452" y="389" type="line"/>
      <point x="395" y="389" type="line"/>
      <point x="395" y="142" type="line" smooth="yes"/>
      <point x="395" y="128.336"/>
      <point x="402.558" y="108"/>
      <point x="438" y="108" type="curve"/>
      <point x="438" y="-4" type="line"/>
      <point x="339.192" y="-4"/>
      <point x="281" y="64.2892"/>
      <point x="281" y="133" type="curve" smooth="yes"/>
      <point x="281" y="389" type="line"/>
      <point x="148" y="389" type="line"/>
      <point x="148" y="0" type="line"/>
      <point x="26" y="0" type="line"/>
      <point x="26" y="389" type="line"/>
    </contour>
  </outline>
</glyph>
<glyph name="perthousand" format="1">
  <advance width="897"/>
  <unicode hex="2030"/>
  <outline>
    <contour>
      <point x="67" y="0" type="line"/>
      <point x="497" y="700" type="line"/>
      <point x="570" y="700" type="line"/>
      <point x="147" y="0" type="line"/>
    </contour>
    <component base="zero" xScale="0.5" yScale="0.5" xOffset="635.75"/>
    <component base="zero" xScale="0.5" yScale="0.5" xOffset="377.75"/>
    <component base="zero" xScale="0.5" yScale="0.5" xOffset="10.75" yOffset="352"/>
  </outline>
</glyph>
<glyph name="uni2113" format="1">
  <advance width="196"/>
  <unicode hex="2113"/>
  <outline>
    <contour>
      <point x="39" y="191" type="curve" smooth="yes"/>
      <point x="39" y="698" type="line"/>
      <point x="170" y="698" type="line"/>
      <point x="170" y="191" type="line"/>
      <point x="171" y="145"/>
      <point x="221" y="135"/>
      <point x="226" y="135" type="curve"/>
      <point x="226" y="-7" type="line"/>
      <point x="166" y="-7"/>
      <point x="39" y="47"/>
    </contour>
  </outline>
</glyph>
<glyph name="uni2126" format="1">
  <advance width="432"/>
  <unicode hex="2126"/>
  <outline>
    <contour>
      <point x="25" y="-1" type="line"/>
      <point x="25" y="62" type="line"/>
      <point x="71.5938" y="62" type="line"/>
      <point x="50.2822" y="89.9883"/>
      <point x="40" y="121.047"/>
      <point x="40" y="141" type="curve" smooth="yes"/>
      <point x="40" y="376" type="line" smooth="yes"/>
      <point x="40" y="425.752"/>
      <point x="90.5186" y="516"/>
      <point x="204" y="516" type="curve"/>
      <point x="204" y="398" type="line"/>
      <point x="168.093" y="398"/>
      <point x="160" y="377.836"/>
      <point x="160" y="363" type="curve" smooth="yes"/>
      <point x="160" y="154" type="line" smooth="yes"/>
      <point x="160" y="131.442"/>
      <point x="168.637" y="117"/>
      <point x="204" y="117" type="curve"/>
      <point x="204" y="-1" type="line"/>
    </contour>
    <contour>
      <point x="245" y="-1" type="line"/>
      <point x="245" y="117" type="line"/>
      <point x="279.125" y="117"/>
      <point x="287" y="137.896"/>
      <point x="287" y="152" type="curve" smooth="yes"/>
      <point x="287" y="363" type="line" smooth="yes"/>
      <point x="287" y="383.592"/>
      <point x="278.243" y="398"/>
      <point x="245" y="398" type="curve"/>
      <point x="245" y="516" type="line"/>
      <point x="353.598" y="516"/>
      <point x="404" y="424.843"/>
      <point x="404" y="376" type="curve" smooth="yes"/>
      <point x="404" y="141" type="line" smooth="yes"/>
      <point x="404" y="120.692"/>
      <point x="394.021" y="89.7939"/>
      <point x="373.511" y="62" type="curve"/>
      <point x="419" y="62" type="line"/>
      <point x="419" y="-1" type="line"/>
    </contour>
  </outline>
</glyph>
<glyph name="estimated" format="1">
  <advance width="531"/>
  <unicode hex="212E"/>
  <outline>
    <contour>
      <point x="238" y="-3" type="line"/>
      <point x="133.36" y="-3"/>
      <point x="30" y="80.2842"/>
      <point x="30" y="196" type="curve" smooth="yes"/>
      <point x="30" y="506" type="line" smooth="yes"/>
      <point x="30" y="621.716"/>
      <point x="133.36" y="705"/>
      <point x="238" y="705" type="curve"/>
      <point x="238" y="565" type="line"/>
      <point x="206.033" y="562"/>
      <point x="170" y="538.067"/>
      <point x="170" y="471" type="curve" smooth="yes"/>
      <point x="170" y="406" type="line"/>
      <point x="361" y="406" type="line"/>
      <point x="361" y="471" type="line" smooth="yes"/>
      <point x="361" y="538.067"/>
      <point x="324.967" y="562"/>
      <point x="293" y="565" type="curve"/>
      <point x="293" y="705" type="line"/>
      <point x="397.64" y="705"/>
      <point x="501" y="621.716"/>
      <point x="501" y="506" type="curve" smooth="yes"/>
      <point x="501" y="266" type="line"/>
      <point x="170" y="266" type="line"/>
      <point x="170" y="231" type="line" smooth="yes"/>
      <point x="170" y="163.933"/>
      <point x="208.033" y="140"/>
      <point x="238" y="137" type="curve"/>
    </contour>
    <contour>
      <point x="293" y="-3" type="curve"/>
      <point x="293" y="137" type="line"/>
      <point x="319.882" y="139.691"/>
      <point x="353.256" y="159.228"/>
      <point x="359.842" y="211.638" type="curve"/>
      <point x="500.152" y="177.964" type="line"/>
      <point x="490.09" y="71.7282"/>
      <point x="392.119" y="-3"/>
    </contour>
  </outline>
</glyph>
<glyph name="uni2206" format="1">
  <advance width="646"/>
  <unicode hex="2206"/>
  <outline>
    <contour>
      <point x="295.288" y="370.036" type="line"/>
      <point x="233" y="125.125" type="line"/>
      <point x="413" y="125.125" type="line"/>
      <point x="263" y="700" type="line"/>
      <point x="385" y="700" type="line"/>
      <point x="566" y="0" type="line"/>
      <point x="80" y="0" type="line"/>
      <point x="230" y="576" type="line"/>
      <point x="239.622" y="576" type="line"/>
    </contour>
  </outline>
</glyph>
<glyph name="product" format="1">
  <advance width="534"/>
  <unicode hex="220F"/>
  <outline>
    <contour>
      <point x="30" y="565" type="line"/>
      <point x="73" y="565" type="line"/>
      <point x="73" y="-140" type="line"/>
      <point x="203" y="-140" type="line"/>
      <point x="203" y="565" type="line"/>
      <point x="331" y="565" type="line"/>
      <point x="331" y="-140" type="line"/>
      <point x="461" y="-140" type="line"/>
      <point x="461" y="565" type="line"/>
      <point x="504" y="565" type="line"/>
      <point x="504" y="700" type="line"/>
      <point x="30" y="700" type="line"/>
    </contour>
  </outline>
</glyph>
<glyph name="radical" format="1">
  <advance width="609"/>
  <unicode hex="221A"/>
  <outline>
    <contour>
      <point x="6" y="513" type="line"/>
      <point x="181" y="575" type="line"/>
      <point x="342" y="177" type="line"/>
      <point x="488" y="819" type="line"/>
      <point x="589" y="819" type="line"/>
      <point x="408" y="0" type="line"/>
      <point x="306" y="0" type="line"/>
      <point x="106" y="492" type="line"/>
      <point x="22" y="461" type="line"/>
    </contour>
  </outline>
</glyph>
<glyph name="infinity" format="1">
  <advance width="798"/>
  <unicode hex="221E"/>
  <outline>
    <contour>
      <point x="609" y="399" type="curve"/>
      <point x="609" y="517" type="line"/>
      <point x="715.598" y="517"/>
      <point x="768" y="425.843"/>
      <point x="768" y="377" type="curve" smooth="yes"/>
      <point x="768" y="142" type="line" smooth="yes"/>
      <point x="768" y="93.1498"/>
      <point x="716.64" y="0"/>
      <point x="609" y="0" type="curve"/>
      <point x="609" y="118" type="line"/>
      <point x="643.125" y="118"/>
      <point x="651" y="138.105"/>
      <point x="651" y="153" type="curve" smooth="yes"/>
      <point x="651" y="364" type="line" smooth="yes"/>
      <point x="651" y="384.592"/>
      <point x="642.243" y="399"/>
    </contour>
    <contour>
      <point x="30" y="377" type="line" smooth="yes"/>
      <point x="30" y="425.752"/>
      <point x="83.5188" y="517"/>
      <point x="194" y="517" type="curve"/>
      <point x="194" y="399" type="line"/>
      <point x="158.092" y="399"/>
      <point x="150" y="377.836"/>
      <point x="150" y="364" type="curve" smooth="yes"/>
      <point x="150" y="155" type="line" smooth="yes"/>
      <point x="150" y="132.443"/>
      <point x="160.637" y="118"/>
      <point x="194" y="118" type="curve"/>
      <point x="194" y="0" type="line"/>
      <point x="82.4842" y="0"/>
      <point x="30" y="94.1756"/>
      <point x="30" y="142" type="curve" smooth="yes"/>
    </contour>
    <contour>
      <point x="371" y="74" type="line"/>
      <point x="345.505" y="33.3056"/>
      <point x="302.607" y="0"/>
      <point x="235" y="0" type="curve"/>
      <point x="235" y="118" type="line"/>
      <point x="253.105" y="118"/>
      <point x="263.5" y="121.707"/>
      <point x="270" y="131" type="curve" smooth="yes"/>
      <point x="335.758" y="262.273" type="line"/>
      <point x="272" y="387" type="line" smooth="yes"/>
      <point x="265.303" y="395.183"/>
      <point x="253.957" y="399"/>
      <point x="235" y="399" type="curve"/>
      <point x="235" y="517" type="line"/>
      <point x="305.629" y="517"/>
      <point x="355.667" y="482.504"/>
      <point x="377" y="442.423" type="curve" smooth="yes"/>
      <point x="401.5" y="393.513" type="line"/>
      <point x="426" y="442.423" type="line" smooth="yes"/>
      <point x="447.323" y="482.486"/>
      <point x="497.379" y="517"/>
      <point x="568" y="517" type="curve"/>
      <point x="568" y="399" type="line"/>
      <point x="549.086" y="399"/>
      <point x="537.69" y="395.174"/>
      <point x="531" y="387" type="curve" smooth="yes"/>
      <point x="467.242" y="262.273" type="line"/>
      <point x="533" y="131" type="line" smooth="yes"/>
      <point x="539.502" y="121.704"/>
      <point x="549.864" y="118"/>
      <point x="568" y="118" type="curve"/>
      <point x="568" y="0" type="line"/>
      <point x="500.381" y="0"/>
      <point x="457.507" y="33.2871"/>
      <point x="432" y="74" type="curve"/>
      <point x="401.5" y="133.666" type="line"/>
    </contour>
  </outline>
</glyph>
<glyph name="integral" format="1">
  <advance width="341"/>
  <unicode hex="222B"/>
  <outline>
    <contour>
      <point x="30" y="-140" type="line"/>
      <point x="35" y="-140"/>
      <point x="127" y="-116"/>
      <point x="127" y="-3" type="curve"/>
      <point x="127" y="625" type="line" smooth="yes"/>
      <point x="127" y="769"/>
      <point x="251" y="819"/>
      <point x="311" y="819" type="curve"/>
      <point x="311" y="754" type="line"/>
      <point x="306" y="754"/>
      <point x="216" y="744"/>
      <point x="216" y="625" type="curve" smooth="yes"/>
      <point x="216" y="-3" type="line" smooth="yes"/>
      <point x="216" y="-147"/>
      <point x="90" y="-205"/>
      <point x="30" y="-205" type="curve"/>
    </contour>
  </outline>
</glyph>
<glyph name="lessequal" format="1">
  <advance width="474"/>
  <unicode hex="2264"/>
  <outline>
    <contour>
      <point x="226" y="360" type="line"/>
      <point x="444" y="280" type="line"/>
      <point x="444" y="153" type="line"/>
      <point x="30" y="331" type="line"/>
      <point x="30" y="389" type="line"/>
      <point x="444" y="567" type="line"/>
      <point x="444" y="440" type="line"/>
    </contour>
    <contour>
      <point x="30" y="-1" type="line"/>
      <point x="30" y="106" type="line"/>
      <point x="444" y="106" type="line"/>
      <point x="444" y="-1" type="line"/>
    </contour>
  </outline>
</glyph>
<glyph name="greaterequal" format="1">
  <advance width="474"/>
  <unicode hex="2265"/>
  <outline>
    <contour>
      <point x="248" y="361" type="line"/>
      <point x="30" y="281" type="line"/>
      <point x="30" y="154" type="line"/>
      <point x="444" y="332" type="line"/>
      <point x="444" y="390" type="line"/>
      <point x="30" y="568" type="line"/>
      <point x="30" y="441" type="line"/>
    </contour>
    <contour>
      <point x="444" y="0" type="line"/>
      <point x="444" y="107" type="line"/>
      <point x="30" y="107" type="line"/>
      <point x="30" y="0" type="line"/>
    </contour>
  </outline>
</glyph>
<glyph name="quotedbl.alt" format="1">
  <advance width="367"/>
  <outline>
    <contour>
      <point x="30" y="476" type="line"/>
      <point x="30" y="700" type="line"/>
      <point x="157" y="700" type="line"/>
      <point x="157" y="476" type="line"/>
    </contour>
    <contour>
      <point x="210" y="476" type="line"/>
      <point x="210" y="700" type="line"/>
      <point x="337" y="700" type="line"/>
      <point x="337" y="476" type="line"/>
    </contour>
  </outline>
</glyph>
